<mxfile host="65bd71144e">
    <diagram id="pl7yXZnVg1umfo9V9jnp" name="Page-1">
        <mxGraphModel dx="1351" dy="833" grid="1" gridSize="10" guides="1" tooltips="1" connect="1" arrows="1" fold="1" page="1" pageScale="1" pageWidth="827" pageHeight="1169" math="0" shadow="0">
            <root>
                <mxCell id="0"/>
                <mxCell id="1" parent="0"/>
                <mxCell id="2" value="" style="shape=cylinder3;whiteSpace=wrap;html=1;boundedLbl=1;backgroundOutline=1;size=15;labelBackgroundColor=none;fontColor=default;fillColor=none;" vertex="1" parent="1">
                    <mxGeometry x="420" y="225" width="158" height="210" as="geometry"/>
                </mxCell>
                <mxCell id="3" value="Store" style="rounded=1;whiteSpace=wrap;html=1;verticalAlign=top;fillColor=none;" vertex="1" parent="1">
                    <mxGeometry x="430" y="270" width="140" height="140" as="geometry"/>
                </mxCell>
                <mxCell id="6" value="ビュー＆ビューモデル" style="rounded=0;whiteSpace=wrap;html=1;fillColor=none;align=left;verticalAlign=top;" vertex="1" parent="1">
                    <mxGeometry x="150" y="255" width="193" height="150" as="geometry"/>
                </mxCell>
                <mxCell id="7" style="edgeStyle=none;html=1;entryX=0.005;entryY=0.433;entryDx=0;entryDy=0;fontColor=default;entryPerimeter=0;" edge="1" parent="1" source="8" target="3">
                    <mxGeometry relative="1" as="geometry">
                        <mxPoint x="436" y="330" as="targetPoint"/>
                    </mxGeometry>
                </mxCell>
                <mxCell id="8" value="&lt;div style=&quot;font-size: 14px; line-height: 19px;&quot;&gt;更新&lt;/div&gt;" style="rounded=1;whiteSpace=wrap;html=1;fillColor=none;fontColor=default;labelBackgroundColor=none;fontFamily=Noto Sans JP;fontSource=https%3A%2F%2Ffonts.googleapis.com%2Fcss%3Ffamily%3DNoto%2BSans%2BJP;" vertex="1" parent="1">
                    <mxGeometry x="220" y="315" width="53" height="30" as="geometry"/>
                </mxCell>
                <mxCell id="9" value="Server" style="shape=hexagon;perimeter=hexagonPerimeter2;whiteSpace=wrap;html=1;fixedSize=1;labelBackgroundColor=none;fontColor=default;fillColor=none;" vertex="1" parent="1">
                    <mxGeometry x="683" y="295" width="120" height="80" as="geometry"/>
                </mxCell>
                <mxCell id="10" value="モデル" style="text;html=1;strokeColor=none;fillColor=none;align=center;verticalAlign=middle;whiteSpace=wrap;rounded=0;labelBackgroundColor=none;fontColor=default;" vertex="1" parent="1">
                    <mxGeometry x="460" y="225" width="82" height="30" as="geometry"/>
                </mxCell>
                <mxCell id="11" style="edgeStyle=none;html=1;exitX=1;exitY=0.5;exitDx=0;exitDy=0;entryX=0;entryY=0.5;entryDx=0;entryDy=0;fontColor=default;" edge="1" parent="1" source="12" target="9">
                    <mxGeometry relative="1" as="geometry"/>
                </mxCell>
                <mxCell id="12" value="axios.post" style="ellipse;whiteSpace=wrap;html=1;labelBackgroundColor=none;fontColor=default;fillColor=none;" vertex="1" parent="1">
                    <mxGeometry x="455.5" y="300" width="91" height="70" as="geometry"/>
                </mxCell>
                <mxCell id="13" value="" style="curved=1;endArrow=classic;html=1;fontFamily=Noto Sans JP;fontSource=https%3A%2F%2Ffonts.googleapis.com%2Fcss%3Ffamily%3DNoto%2BSans%2BJP;fontColor=default;exitX=0;exitY=0.75;exitDx=0;exitDy=0;entryX=0.911;entryY=0.867;entryDx=0;entryDy=0;entryPerimeter=0;" edge="1" parent="1" source="9" target="27">
                    <mxGeometry width="50" height="50" relative="1" as="geometry">
                        <mxPoint x="633" y="370" as="sourcePoint"/>
                        <mxPoint x="683" y="320" as="targetPoint"/>
                        <Array as="points">
                            <mxPoint x="680" y="380"/>
                            <mxPoint x="640" y="400"/>
                        </Array>
                    </mxGeometry>
                </mxCell>
                <mxCell id="14" value="Response" style="shape=table;startSize=20;container=1;collapsible=0;childLayout=tableLayout;fontStyle=1;align=center;pointerEvents=1;labelBackgroundColor=none;fontFamily=Noto Sans JP;fontSource=https%3A%2F%2Ffonts.googleapis.com%2Fcss%3Ffamily%3DNoto%2BSans%2BJP;fontColor=default;fillColor=default;strokeWidth=1;swimlaneFillColor=default;" vertex="1" parent="1">
                    <mxGeometry x="620" y="380" width="190" height="110" as="geometry"/>
                </mxCell>
                <mxCell id="15" value="" style="shape=partialRectangle;html=1;whiteSpace=wrap;collapsible=0;dropTarget=0;pointerEvents=0;fillColor=none;top=0;left=0;bottom=0;right=0;points=[[0,0.5],[1,0.5]];portConstraint=eastwest;labelBackgroundColor=none;fontFamily=Noto Sans JP;fontSource=https%3A%2F%2Ffonts.googleapis.com%2Fcss%3Ffamily%3DNoto%2BSans%2BJP;fontColor=default;strokeWidth=1;" vertex="1" parent="14">
                    <mxGeometry y="20" width="190" height="31" as="geometry"/>
                </mxCell>
                <mxCell id="16" value="Status Code" style="shape=partialRectangle;html=1;whiteSpace=wrap;connectable=0;fillColor=none;top=0;left=0;bottom=0;right=0;overflow=hidden;pointerEvents=1;labelBackgroundColor=none;fontFamily=Noto Sans JP;fontSource=https%3A%2F%2Ffonts.googleapis.com%2Fcss%3Ffamily%3DNoto%2BSans%2BJP;fontColor=default;strokeWidth=1;perimeterSpacing=1;" vertex="1" parent="15">
                    <mxGeometry width="95" height="31" as="geometry">
                        <mxRectangle width="95" height="31" as="alternateBounds"/>
                    </mxGeometry>
                </mxCell>
                <mxCell id="17" value="400" style="shape=partialRectangle;html=1;whiteSpace=wrap;connectable=0;fillColor=none;top=0;left=0;bottom=0;right=0;overflow=hidden;pointerEvents=1;labelBackgroundColor=none;fontFamily=Noto Sans JP;fontSource=https%3A%2F%2Ffonts.googleapis.com%2Fcss%3Ffamily%3DNoto%2BSans%2BJP;fontColor=default;strokeWidth=1;" vertex="1" parent="15">
                    <mxGeometry x="95" width="95" height="31" as="geometry">
                        <mxRectangle width="95" height="31" as="alternateBounds"/>
                    </mxGeometry>
                </mxCell>
                <mxCell id="18" value="" style="shape=partialRectangle;html=1;whiteSpace=wrap;collapsible=0;dropTarget=0;pointerEvents=0;fillColor=none;top=0;left=0;bottom=0;right=0;points=[[0,0.5],[1,0.5]];portConstraint=eastwest;labelBackgroundColor=none;fontFamily=Noto Sans JP;fontSource=https%3A%2F%2Ffonts.googleapis.com%2Fcss%3Ffamily%3DNoto%2BSans%2BJP;fontColor=default;strokeWidth=1;" vertex="1" parent="14">
                    <mxGeometry y="51" width="190" height="28" as="geometry"/>
                </mxCell>
                <mxCell id="19" value="Error Code" style="shape=partialRectangle;html=1;whiteSpace=wrap;connectable=0;fillColor=none;top=0;left=0;bottom=0;right=0;overflow=hidden;pointerEvents=1;labelBackgroundColor=none;fontFamily=Noto Sans JP;fontSource=https%3A%2F%2Ffonts.googleapis.com%2Fcss%3Ffamily%3DNoto%2BSans%2BJP;fontColor=default;strokeWidth=1;" vertex="1" parent="18">
                    <mxGeometry width="95" height="28" as="geometry">
                        <mxRectangle width="95" height="28" as="alternateBounds"/>
                    </mxGeometry>
                </mxCell>
                <mxCell id="20" value="XXX" style="shape=partialRectangle;html=1;whiteSpace=wrap;connectable=0;fillColor=none;top=0;left=0;bottom=0;right=0;overflow=hidden;pointerEvents=1;labelBackgroundColor=none;fontFamily=Noto Sans JP;fontSource=https%3A%2F%2Ffonts.googleapis.com%2Fcss%3Ffamily%3DNoto%2BSans%2BJP;fontColor=default;strokeWidth=1;" vertex="1" parent="18">
                    <mxGeometry x="95" width="95" height="28" as="geometry">
                        <mxRectangle width="95" height="28" as="alternateBounds"/>
                    </mxGeometry>
                </mxCell>
                <mxCell id="21" value="" style="shape=partialRectangle;html=1;whiteSpace=wrap;collapsible=0;dropTarget=0;pointerEvents=0;fillColor=none;top=0;left=0;bottom=0;right=0;points=[[0,0.5],[1,0.5]];portConstraint=eastwest;labelBackgroundColor=none;fontFamily=Noto Sans JP;fontSource=https%3A%2F%2Ffonts.googleapis.com%2Fcss%3Ffamily%3DNoto%2BSans%2BJP;fontColor=default;strokeWidth=1;" vertex="1" parent="14">
                    <mxGeometry y="79" width="190" height="31" as="geometry"/>
                </mxCell>
                <mxCell id="22" value="Error Message" style="shape=partialRectangle;html=1;whiteSpace=wrap;connectable=0;fillColor=none;top=0;left=0;bottom=0;right=0;overflow=hidden;pointerEvents=1;labelBackgroundColor=none;fontFamily=Noto Sans JP;fontSource=https%3A%2F%2Ffonts.googleapis.com%2Fcss%3Ffamily%3DNoto%2BSans%2BJP;fontColor=default;strokeWidth=1;" vertex="1" parent="21">
                    <mxGeometry width="95" height="31" as="geometry">
                        <mxRectangle width="95" height="31" as="alternateBounds"/>
                    </mxGeometry>
                </mxCell>
                <mxCell id="23" value="&quot;更新に失敗しました&quot;" style="shape=partialRectangle;html=1;whiteSpace=wrap;connectable=0;fillColor=none;top=0;left=0;bottom=0;right=0;overflow=hidden;pointerEvents=1;labelBackgroundColor=none;fontFamily=Noto Sans JP;fontSource=https%3A%2F%2Ffonts.googleapis.com%2Fcss%3Ffamily%3DNoto%2BSans%2BJP;fontColor=default;strokeWidth=1;fontSize=11;" vertex="1" parent="21">
                    <mxGeometry x="95" width="95" height="31" as="geometry">
                        <mxRectangle width="95" height="31" as="alternateBounds"/>
                    </mxGeometry>
                </mxCell>
                <mxCell id="24" value="" style="curved=1;endArrow=classic;html=1;fontFamily=Noto Sans JP;fontSource=https%3A%2F%2Ffonts.googleapis.com%2Fcss%3Ffamily%3DNoto%2BSans%2BJP;fontColor=default;exitX=0;exitY=1;exitDx=0;exitDy=0;entryX=0.902;entryY=1.022;entryDx=0;entryDy=0;entryPerimeter=0;" edge="1" parent="1" source="12" target="8">
                    <mxGeometry width="50" height="50" relative="1" as="geometry">
                        <mxPoint x="701.5714285714287" y="357.1428571428571" as="sourcePoint"/>
                        <mxPoint x="553.4264068711927" y="368.2842712474619" as="targetPoint"/>
                        <Array as="points">
                            <mxPoint x="370" y="420"/>
                        </Array>
                    </mxGeometry>
                </mxCell>
                <mxCell id="25" value="action内のaxiosの処理を&lt;br&gt;try-catchでハンドリングする&lt;br&gt;&lt;br&gt;(例)stateの値をロールバック" style="shape=callout;whiteSpace=wrap;html=1;perimeter=calloutPerimeter;labelBackgroundColor=none;fontFamily=Noto Sans JP;fontSource=https%3A%2F%2Ffonts.googleapis.com%2Fcss%3Ffamily%3DNoto%2BSans%2BJP;fillColor=#f8cecc;size=90;position=0.25;base=28;direction=west;position2=0.14;strokeColor=#b85450;align=center;spacingLeft=2;spacingRight=2;" vertex="1" parent="1">
                    <mxGeometry x="324" y="370" width="179" height="165" as="geometry"/>
                </mxCell>
                <mxCell id="26" value="storeの処理を&lt;br&gt;try-catchでハンドリング&lt;br&gt;&lt;br&gt;(例)処理に失敗したメッセージを表示" style="shape=callout;whiteSpace=wrap;html=1;perimeter=calloutPerimeter;labelBackgroundColor=none;fontFamily=Noto Sans JP;fontSource=https%3A%2F%2Ffonts.googleapis.com%2Fcss%3Ffamily%3DNoto%2BSans%2BJP;fillColor=#f8cecc;size=30;position=0.59;base=30;direction=west;position2=0.45;strokeColor=#b85450;align=center;spacingLeft=1;spacingRight=1;" vertex="1" parent="1">
                    <mxGeometry x="80" y="350" width="220" height="100" as="geometry"/>
                </mxCell>
                <mxCell id="27" value="interceptors" style="ellipse;whiteSpace=wrap;html=1;" vertex="1" parent="1">
                    <mxGeometry x="500" y="340" width="90" height="60" as="geometry"/>
                </mxCell>
                <mxCell id="28" value="HTTPステータスコードレベルで&lt;br&gt;行うべき共通処理を&lt;br&gt;axios.interceptorでハンドリング&lt;br&gt;&lt;br&gt;(例)status:500でSorry画面に遷移" style="shape=callout;whiteSpace=wrap;html=1;perimeter=calloutPerimeter;labelBackgroundColor=none;fontFamily=Noto Sans JP;fontSource=https%3A%2F%2Ffonts.googleapis.com%2Fcss%3Ffamily%3DNoto%2BSans%2BJP;fillColor=#f8cecc;size=110;position=0.81;base=20;direction=west;position2=0.86;strokeColor=#b85450;align=center;spacingLeft=2;spacingRight=2;" vertex="1" parent="1">
                    <mxGeometry x="530" y="400" width="210" height="190" as="geometry"/>
                </mxCell>
            </root>
        </mxGraphModel>
    </diagram>
</mxfile>